<!-- home icon -->
<svg
                width="24"
                height="24"
                viewBox="0 0 24 24"
                fill="none"
                xmlns="http://www.w3.org/2000/svg"
              >
                <path
                  d="M4 11.709C4 10.1862 4 9.42477 4.30783 8.75548C4.61566 8.08619 5.19377 7.59066 6.35 6.59961L7.47158 5.63826C9.56144 3.84695 10.6064 2.95129 11.8511 2.95129C13.0958 2.95129 14.1407 3.84695 16.2306 5.63826L17.3521 6.59962C18.5084 7.59066 19.0865 8.08619 19.3943 8.75548C19.7021 9.42477 19.7021 10.1862 19.7021 11.709V16.465C19.7021 18.5798 19.7021 19.6373 19.0451 20.2943C18.3881 20.9513 17.3307 20.9513 15.2158 20.9513H8.48633C6.37145 20.9513 5.31401 20.9513 4.65701 20.2943C4 19.6373 4 18.5798 4 16.465V11.709Z"
                  stroke="white"
                  stroke-width="1.5"
                />
                <path
                  d="M15 21V14C15 13.4477 14.5523 13 14 13H10C9.44772 13 9 13.4477 9 14V21"
                  stroke="white"
                  stroke-width="1.5"
                  stroke-linecap="round"
                  stroke-linejoin="round"
                />
              </svg>


              




