<svg width="20" height="20" viewBox="0 0 20 20" fill="none" xmlns="http://www.w3.org/2000/svg">
<path d="M10.3996 14.8012L10.0497 14.1378L10.0497 14.1378L10.3996 14.8012ZM9.60055 14.8012L9.25065 15.4646L9.25066 15.4646L9.60055 14.8012ZM15.0834 7.50002C15.0834 9.28649 14.1901 10.7606 13.073 11.9069C11.956 13.0531 10.6738 13.8086 10.0497 14.1378L10.7495 15.4646C11.4418 15.0994 12.8765 14.2578 14.1473 12.9538C15.418 11.6498 16.5834 9.82045 16.5834 7.50002H15.0834ZM10.0001 2.41669C12.8075 2.41669 15.0834 4.69257 15.0834 7.50002H16.5834C16.5834 3.86415 13.636 0.916687 10.0001 0.916687V2.41669ZM4.91675 7.50002C4.91675 4.69257 7.19263 2.41669 10.0001 2.41669V0.916687C6.36421 0.916687 3.41675 3.86415 3.41675 7.50002H4.91675ZM9.95044 14.1378C9.32639 13.8086 8.04414 13.0531 6.92714 11.9069C5.81008 10.7606 4.91675 9.28649 4.91675 7.50002H3.41675C3.41675 9.82045 4.58213 11.6498 5.85287 12.9538C7.12367 14.2578 8.55832 15.0994 9.25065 15.4646L9.95044 14.1378ZM10.0497 14.1378C10.0167 14.1552 9.98343 14.1552 9.95044 14.1378L9.25066 15.4646C9.72158 15.7129 10.2786 15.7129 10.7495 15.4646L10.0497 14.1378ZM11.7501 7.50002C11.7501 8.46652 10.9666 9.25002 10.0001 9.25002V10.75C11.795 10.75 13.2501 9.29495 13.2501 7.50002H11.7501ZM10.0001 5.75002C10.9666 5.75002 11.7501 6.53352 11.7501 7.50002H13.2501C13.2501 5.70509 11.795 4.25002 10.0001 4.25002V5.75002ZM8.25008 7.50002C8.25008 6.53352 9.03358 5.75002 10.0001 5.75002V4.25002C8.20516 4.25002 6.75008 5.70509 6.75008 7.50002H8.25008ZM10.0001 9.25002C9.03358 9.25002 8.25008 8.46652 8.25008 7.50002H6.75008C6.75008 9.29495 8.20516 10.75 10.0001 10.75V9.25002Z" fill="#007BFF"/>
<path d="M16.4952 14.5833C17.1535 14.9634 17.5 15.3945 17.5 15.8333C17.5 16.2722 17.1535 16.7033 16.4952 17.0833C15.8369 17.4634 14.8901 17.779 13.75 17.9984C12.6099 18.2178 11.3165 18.3333 10 18.3333C8.68348 18.3333 7.39014 18.2178 6.25 17.9984C5.10986 17.779 4.16307 17.4634 3.50481 17.0833C2.84655 16.7033 2.5 16.2722 2.5 15.8333C2.5 15.3945 2.84655 14.9634 3.50481 14.5833" stroke="#007BFF" stroke-width="1.5" stroke-linecap="round"/>
</svg>
